<svg aria-hidden="true" style="width:0;height:0;position:absolute;overflow:hidden" xmlns="http://www.w3.org/2000/svg"><defs><symbol id="search" viewBox="0 0 32 32"><path fill="none" stroke="#fff" style="stroke:var(--color1,#fff)" stroke-linejoin="round" stroke-linecap="round" stroke-width="2.667" d="M14.667 25.333c5.891 0 10.667-4.776 10.667-10.667S20.558 3.999 14.667 3.999v0C8.776 3.999 4 8.775 4 14.666s4.776 10.667 10.667 10.667v0zM28 28l-5.8-5.8"/></symbol><symbol id="logo" viewBox="0 0 32 32"><path fill="none" stroke="#fff" style="stroke:var(--color1,#fff)" stroke-linejoin="round" stroke-linecap="round" stroke-width="2.667" d="M26.427 2.667H5.574a2.907 2.907 0 0 0-2.907 2.907v20.853a2.907 2.907 0 0 0 2.907 2.907v0h20.853a2.907 2.907 0 0 0 2.907-2.907v0V5.574a2.907 2.907 0 0 0-2.907-2.907v0zm-17.094 0v26.667M22.667 2.667v26.667M2.667 16h26.667M2.667 9.333h6.667M2.667 22.667h6.667m13.333 0h6.667M22.667 9.333h6.667"/></symbol><symbol id="heart" viewBox="0 0 34 32"><path fill="#ff6b08" style="fill:var(--color1,#ff6b08)" d="m17.231 31.705-2.412-2.412C5.859 21.367.001 16.025.001 9.478.001 4.136 4.136.001 9.478.001c2.929 0 5.858 1.378 7.754 3.618 1.895-2.24 4.825-3.618 7.754-3.618 5.342 0 9.477 4.135 9.477 9.477 0 6.548-5.858 11.889-14.818 19.815l-2.412 2.412z"/></symbol><symbol id="filters" viewBox="0 0 32 32"><path d="M14 4v-.5c0-.825-.675-1.5-1.5-1.5h-5C6.675 2 6 2.675 6 3.5V4H0v4h6v.5c0 .825.675 1.5 1.5 1.5h5c.825 0 1.5-.675 1.5-1.5V8h18V4H14zM8 8V4h4v4H8zm18 5.5c0-.825-.675-1.5-1.5-1.5h-5c-.825 0-1.5.675-1.5 1.5v.5H0v4h18v.5c0 .825.675 1.5 1.5 1.5h5c.825 0 1.5-.675 1.5-1.5V18h6v-4h-6v-.5zM20 18v-4h4v4h-4zm-6 5.5c0-.825-.675-1.5-1.5-1.5h-5c-.825 0-1.5.675-1.5 1.5v.5H0v4h6v.5c0 .825.675 1.5 1.5 1.5h5c.825 0 1.5-.675 1.5-1.5V28h18v-4H14v-.5zM8 28v-4h4v4H8z"/></symbol><symbol id="settings" viewBox="0 0 32 32"><path d="m11.366 22.564 1.291-1.807-1.414-1.414-1.807 1.291a4.996 4.996 0 0 0-1.071-.444L8 18H6l-.365 2.19a4.946 4.946 0 0 0-1.071.444l-1.807-1.291-1.414 1.414 1.291 1.807a4.943 4.943 0 0 0-.443 1.071L.001 24v2l2.19.365c.107.377.256.736.444 1.071l-1.291 1.807 1.414 1.414 1.807-1.291c.335.187.694.337 1.071.444L6.001 32h2l.365-2.19a4.946 4.946 0 0 0 1.071-.444l1.807 1.291 1.414-1.414-1.291-1.807c.187-.335.337-.694.444-1.071l2.19-.365v-2l-2.19-.365a4.946 4.946 0 0 0-.444-1.071zM7 27a2 2 0 1 1-.001-3.999A2 2 0 0 1 7 27zm25-15v-2l-2.106-.383a8.715 8.715 0 0 0-.148-.743l1.799-1.159-.765-1.848-2.092.452a8.957 8.957 0 0 0-.422-.629l1.219-1.761-1.414-1.414-1.761 1.219a8.957 8.957 0 0 0-.629-.422l.452-2.092-1.848-.765-1.159 1.799a9.122 9.122 0 0 0-.743-.148L22 0h-2l-.383 2.106a8.715 8.715 0 0 0-.743.148L17.715.455l-1.848.765.452 2.092a8.957 8.957 0 0 0-.629.422l-1.761-1.219-1.414 1.414 1.219 1.761c-.149.203-.29.413-.422.629l-2.092-.452-.765 1.848 1.799 1.159a9.122 9.122 0 0 0-.148.743L10 10v2l2.106.383c.039.251.088.499.148.743l-1.799 1.159.765 1.848 2.092-.452c.132.216.273.426.422.629l-1.219 1.761 1.414 1.414 1.761-1.219c.203.149.413.29.629.422l-.452 2.092 1.848.765 1.159-1.799c.244.059.492.109.743.148L20 22h2l.383-2.106c.251-.039.499-.088.743-.148l1.159 1.799 1.848-.765-.452-2.092c.216-.132.426-.273.629-.422l1.761 1.219 1.414-1.414-1.219-1.761c.149-.203.29-.413.422-.629l2.092.452.765-1.848-1.799-1.159c.059-.244.109-.492.148-.743L32 12zm-11 3.35a4.35 4.35 0 1 1 .001-8.701A4.35 4.35 0 0 1 21 15.35z"/></symbol><symbol id="enter" viewBox="0 0 32 32"><path d="M12 16H2v-4h10V8l6 6-6 6zM32 0v26l-12 6v-6H8v-8h2v6h10V6l8-4H10v8H8V0z"/></symbol><symbol id="home" viewBox="0 0 32 32"><path d="M32 18.451 16 6.031 0 18.451v-5.064L16 .967l16 12.42zM28 18v12h-8v-8h-8v8H4V18l12-9z"/></symbol><symbol id="genres" viewBox="0 0 32 32"><path d="M0 32C4 20 14.469 0 32 0c-8.219 6.594-12 22-18 22H8L2 32H0z"/></symbol><symbol id="date" viewBox="0 0 32 32"><path d="M22.781 16C27.086 13.271 30 8.025 30 2c0-.677-.037-1.345-.109-2H2.108a18.31 18.31 0 0 0-.109 2c0 6.025 2.914 11.271 7.219 14-4.305 2.729-7.219 7.975-7.219 14 0 .677.037 1.345.109 2h27.783A18.31 18.31 0 0 0 30 30c0-6.025-2.914-11.271-7.219-14zM5 30c0-5.841 2.505-10.794 7-12.428v-3.143C7.505 12.795 5 7.842 5 2.001h22c0 5.841-2.505 10.794-7 12.428v3.143c4.495 1.634 7 6.587 7 12.428H5zm14.363-9.075C17.124 19.655 17 18.007 17 17.007V15c0-1 .119-2.654 2.367-3.927C20.57 10.374 21.611 9.312 22.4 8H9.601c.79 1.313 1.832 2.376 3.036 3.075C14.876 12.345 15 13.993 15 14.993V17c0 1-.119 2.654-2.367 3.927-2.269 1.318-3.961 3.928-4.472 7.073h15.677c-.511-3.147-2.204-5.758-4.475-7.075z"/></symbol><symbol id="sort" viewBox="0 0 32 32"><path d="M10 24V0H6v24H1l7 7 7-7h-5zM14 0h18v4H14V0zM14 6h14v4H14V6zM14 12h10v4H14v-4z"/><path d="M14 18h6v4h-6v-4z"/></symbol><symbol id="theme" viewBox="0 0 32 32"><path d="M16 8a8 8 0 1 0 0 16 8 8 0 0 0 0-16zm0 13V11c2.757 0 5 2.243 5 5s-2.243 5-5 5zm0 5a2 2 0 0 1 2 2v2a2 2 0 1 1-4 0v-2a2 2 0 0 1 2-2zm0-20a2 2 0 0 1-2-2V2a2 2 0 1 1 4 0v2a2 2 0 0 1-2 2zm14 8a2 2 0 1 1 0 4h-2a2 2 0 1 1 0-4h2zM6 16a2 2 0 0 1-2 2H2a2 2 0 1 1 0-4h2a2 2 0 0 1 2 2zm19.899 7.071 1.414 1.414a2 2 0 1 1-2.828 2.828l-1.414-1.414a2 2 0 1 1 2.828-2.828zM6.101 8.929 4.687 7.515a2 2 0 1 1 2.828-2.828l1.414 1.414a2 2 0 1 1-2.828 2.828zm19.798 0a2 2 0 1 1-2.828-2.828l1.414-1.414a2 2 0 1 1 2.828 2.828l-1.414 1.414zM6.101 23.071a2 2 0 1 1 2.828 2.828l-1.414 1.414a2 2 0 1 1-2.828-2.828l1.414-1.414z"/></symbol><symbol id="reset" viewBox="0 0 32 32"><path d="M16 2A15.946 15.946 0 0 0 4.687 6.687L.001 2v12h12L7.516 9.515A11.962 11.962 0 0 1 16.001 6c6.627 0 12 5.373 12 12 0 3.584-1.572 6.801-4.063 9l2.646 3a15.96 15.96 0 0 0 5.417-12c0-8.837-7.163-16-16-16z"/></symbol><symbol id="close" viewBox="0 0 32 32"><path d="m24.224 9.291-1.515-1.515L16 14.496l-6.709-6.72-1.515 1.515L14.496 16l-6.72 6.709 1.515 1.515L16 17.504l6.709 6.72 1.515-1.515L17.504 16z"/></symbol><symbol id="icon-circle-up" viewBox="0 0 32 32"><path d="M0 16c0 8.837 7.163 16 16 16s16-7.163 16-16S24.837 0 16 0 0 7.163 0 16zm29 0c0 7.18-5.82 13-13 13S3 23.18 3 16 8.82 3 16 3s13 5.82 13 13z"/><path d="m22.086 20.914 2.829-2.829-8.914-8.914-8.914 8.914 2.828 2.828 6.086-6.086z"/></symbol><symbol id="linkedin" viewBox="0 0 32 32"><path d="M31.992 32v-.001H32V20.263c0-5.741-1.236-10.164-7.948-10.164-3.227 0-5.392 1.771-6.276 3.449h-.093v-2.913h-6.364v21.364h6.627V21.42c0-2.785.528-5.479 3.977-5.479 3.399 0 3.449 3.179 3.449 5.657v10.401h6.62zM.528 10.636h6.635V32H.528V10.636zM3.843 0C1.722 0 0 1.721 0 3.843s1.721 3.879 3.843 3.879c2.121 0 3.843-1.757 3.843-3.879A3.846 3.846 0 0 0 3.843 0z"/></symbol><symbol id="github" viewBox="0 0 32 32"><path fill="#F05133" style="fill:var(--color2,#f05133)" d="M32 16c0 8.837-7.163 16-16 16S0 24.837 0 16 7.163 0 16 0s16 7.163 16 16z"/><path d="M16 6.588c-5.169 0-9.412 4.242-9.412 9.412 0 4.411 3.095 8.419 7.206 9.412v-3.114a2.307 2.307 0 0 1-1.197-.03c-.556-.164-1.008-.535-1.344-1.1-.214-.361-.593-.752-.988-.723l-.097-1.099c.855-.073 1.595.521 2.034 1.259.195.328.419.52.708.605.278.082.578.043.926-.08.088-.698.407-.959.648-1.326v-.001c-2.451-.366-3.428-1.666-3.816-2.693-.514-1.363-.238-3.066.671-4.142.018-.021.05-.076.037-.114-.417-1.258.091-2.299.11-2.41.481.142.559-.143 2.089.786l.264.159c.111.066.076.028.186.02A8.031 8.031 0 0 1 16 11.131a8.016 8.016 0 0 1 2.002.285l.086.009c-.007-.001.023-.005.075-.036 1.911-1.157 1.842-.779 2.355-.946.019.111.519 1.169.107 2.411-.056.171 1.657 1.739.708 4.256-.388 1.027-1.365 2.328-3.816 2.693v.001c.314.479.692.734.69 1.722v3.887c4.111-.993 7.206-5 7.206-9.412 0-5.169-4.242-9.412-9.412-9.412z"/></symbol><symbol id="close-modal" viewBox="0 0 32 32"><path d="m17.254 16 7.369-7.369a.886.886 0 0 0-.047-1.207.89.89 0 0 0-1.207-.047L16 14.746 8.631 7.368A.892.892 0 0 0 7.369 8.63l7.378 7.369-7.378 7.369a.891.891 0 0 0-.05 1.304.906.906 0 0 0 .663.26.88.88 0 0 0 .641-.31l7.378-7.369 7.369 7.369a.886.886 0 0 0 1.207-.047.893.893 0 0 0 .047-1.207l-7.369-7.369z"/></symbol><symbol id="logo-footer" viewBox="0 0 32 32"><path fill="none" stroke="#ff6b08" style="stroke:var(--color1,#ff6b08)" stroke-linejoin="round" stroke-linecap="round" stroke-width="2.667" d="M26.427 2.667H5.574a2.907 2.907 0 0 0-2.907 2.907v20.853a2.907 2.907 0 0 0 2.907 2.907v0h20.853a2.907 2.907 0 0 0 2.907-2.907v0V5.574a2.907 2.907 0 0 0-2.907-2.907v0zm-17.094 0v26.667M22.667 2.667v26.667M2.667 16h26.667M2.667 9.333h6.667M2.667 22.667h6.667m13.333 0h6.667M22.667 9.333h6.667"/></symbol><symbol id="App_Store" viewBox="0 0 108 32"><path fill="#a6a6a6" style="fill:var(--color1,#a6a6a6)" d="M104.158 32H3.784a3.791 3.791 0 0 1-3.783-3.786V3.781A3.787 3.787 0 0 1 3.784 0h100.374C106.243 0 108 1.696 108 3.781v24.433c0 2.084-1.758 3.786-3.842 3.786z"/><path style="fill:var(--color2,#000)" d="M107.226 28.214a3.064 3.064 0 0 1-3.067 3.064H3.784a3.068 3.068 0 0 1-3.071-3.064V3.78A3.072 3.072 0 0 1 3.784.712h100.374a3.067 3.067 0 0 1 3.067 3.068l.001 24.434z"/><path fill="#fff" style="fill:var(--color3,#fff)" d="M24.102 15.827c-.023-2.578 2.111-3.833 2.209-3.891-1.209-1.762-3.082-2.003-3.741-2.022-1.574-.166-3.1.942-3.902.942-.818 0-2.052-.926-3.382-.898-1.712.026-3.314 1.018-4.192 2.557-1.813 3.138-.461 7.75 1.276 10.287.869 1.242 1.884 2.63 3.213 2.581 1.3-.054 1.786-.829 3.354-.829 1.554 0 2.01.829 3.366.798 1.395-.022 2.274-1.248 3.112-2.502 1.004-1.424 1.407-2.826 1.423-2.898-.033-.011-2.71-1.033-2.736-4.123zM21.542 8.245c.699-.874 1.178-2.064 1.045-3.271-1.012.045-2.278.7-3.006 1.555-.645.754-1.221 1.989-1.072 3.15 1.137.085 2.304-.574 3.034-1.434zM42.916 25.203h-1.817l-.995-3.127h-3.459l-.948 3.127h-1.769l3.427-10.646h2.117l3.444 10.646zm-3.112-4.439-.9-2.78c-.095-.284-.274-.953-.537-2.006h-.032a78.349 78.349 0 0 1-.506 2.006l-.884 2.78h2.858zM51.73 21.27c0 1.306-.353 2.338-1.058 3.095-.632.674-1.417 1.011-2.354 1.011-1.011 0-1.738-.363-2.18-1.09h-.032v4.044H44.4v-8.278c0-.821-.022-1.663-.063-2.527h1.5l.095 1.217h.032c.569-.917 1.432-1.374 2.59-1.374.906 0 1.662.358 2.266 1.074.606.717.909 1.659.909 2.828zm-1.738.063c0-.747-.168-1.363-.506-1.848-.369-.506-.864-.758-1.485-.758-.421 0-.803.141-1.145.418-.342.28-.566.646-.671 1.098a2.219 2.219 0 0 0-.079.52v1.28c0 .558.171 1.03.514 1.414s.787.577 1.334.577c.642 0 1.142-.248 1.5-.742s.538-1.148.538-1.959zM60.559 21.27c0 1.306-.353 2.338-1.059 3.095-.631.674-1.416 1.011-2.353 1.011-1.011 0-1.738-.363-2.179-1.09h-.032v4.044H53.23v-8.278c0-.821-.022-1.663-.063-2.527h1.5l.095 1.217h.032c.568-.917 1.431-1.374 2.59-1.374.905 0 1.661.358 2.267 1.074.604.717.907 1.659.907 2.828zm-1.737.063c0-.747-.169-1.363-.506-1.848-.369-.506-.862-.758-1.484-.758a1.78 1.78 0 0 0-1.146.418c-.342.28-.566.646-.67 1.098a2.273 2.273 0 0 0-.079.52v1.28c0 .558.171 1.03.512 1.414.342.384.787.577 1.336.577.642 0 1.142-.248 1.5-.742s.538-1.148.538-1.959zM70.431 22.218c0 .906-.314 1.642-.946 2.211-.694.622-1.659.932-2.9.932-1.146 0-2.064-.221-2.759-.663l.395-1.422c.749.453 1.57.68 2.466.68.642 0 1.142-.146 1.502-.435.358-.29.536-.678.536-1.163 0-.432-.147-.796-.442-1.091-.294-.295-.784-.57-1.469-.823-1.864-.695-2.795-1.714-2.795-3.053 0-.875.326-1.593.98-2.151.651-.559 1.52-.838 2.606-.838.969 0 1.774.169 2.416.506l-.426 1.39c-.6-.326-1.278-.49-2.038-.49-.6 0-1.069.148-1.405.442a1.263 1.263 0 0 0-.426.964c0 .421.162.769.489 1.042.284.253.8.526 1.549.822.916.369 1.589.8 2.022 1.294.431.493.646 1.11.646 1.846zM76.07 18.806h-1.88v3.727c0 .948.331 1.422.995 1.422.305 0 .558-.026.758-.079l.047 1.295c-.336.126-.778.189-1.326.189-.674 0-1.2-.206-1.58-.616-.378-.411-.569-1.101-.569-2.07v-3.87h-1.12v-1.28h1.12v-1.406l1.675-.506v1.911h1.88v1.282zM84.553 21.302c0 1.18-.338 2.149-1.011 2.906-.706.78-1.644 1.169-2.813 1.169-1.126 0-2.023-.374-2.692-1.121s-1.003-1.69-1.003-2.827c0-1.19.344-2.164 1.034-2.922.689-.758 1.618-1.138 2.787-1.138 1.126 0 2.033.374 2.717 1.122.654.726.981 1.662.981 2.81zm-1.77.055c0-.708-.151-1.315-.458-1.822-.358-.613-.869-.918-1.531-.918-.686 0-1.206.306-1.564.918-.306.507-.458 1.124-.458 1.854 0 .708.151 1.315.458 1.821.369.613.884.918 1.549.918.651 0 1.162-.312 1.531-.934.314-.516.473-1.13.473-1.837zM90.097 19.026a2.984 2.984 0 0 0-.538-.047c-.6 0-1.064.226-1.39.68-.284.4-.426.906-.426 1.516v4.028h-1.705l.016-5.259c0-.885-.022-1.69-.064-2.417h1.486l.062 1.469h.047c.18-.505.464-.911.853-1.216.38-.274.79-.411 1.233-.411.158 0 .3.011.426.031v1.626zM97.725 21.002c0 .306-.02.563-.062.774h-5.117c.02.758.267 1.338.742 1.738.431.358.989.537 1.674.537.758 0 1.449-.121 2.07-.363l.267 1.184c-.726.317-1.584.474-2.574.474-1.19 0-2.125-.35-2.805-1.05-.678-.7-1.018-1.64-1.018-2.819 0-1.158.316-2.122.949-2.89.662-.821 1.558-1.231 2.684-1.231 1.106 0 1.944.41 2.513 1.231.45.652.677 1.458.677 2.416zm-1.627-.443c.011-.506-.1-.942-.331-1.311-.295-.474-.749-.711-1.359-.711-.558 0-1.011.231-1.358.695a2.545 2.545 0 0 0-.505 1.326h3.553zM39.24 8.007c0 .942-.282 1.65-.846 2.126-.522.439-1.265.659-2.226.659-.477 0-.885-.021-1.226-.062V5.585a9.057 9.057 0 0 1 1.444-.109c.916 0 1.606.199 2.072.598.522.45.783 1.094.783 1.933zm-.884.023c0-.61-.162-1.078-.485-1.405s-.795-.489-1.417-.489c-.264 0-.489.018-.675.054v3.911c.103.016.292.023.566.023.642 0 1.137-.178 1.486-.535s.525-.877.525-1.56zM43.927 8.83c0 .58-.166 1.055-.497 1.428-.347.383-.807.574-1.382.574-.554 0-.994-.183-1.323-.551s-.492-.83-.492-1.389c0-.584.169-1.063.508-1.435s.795-.558 1.37-.558c.554 0 .998.183 1.335.55.32.357.481.818.481 1.381zm-.869.027c0-.348-.075-.646-.225-.895-.176-.301-.426-.451-.752-.451-.337 0-.593.15-.769.451-.15.249-.225.552-.225.91 0 .348.075.646.225.895.182.301.434.451.761.451.32 0 .571-.153.752-.459.155-.254.233-.554.233-.902zM50.212 6.975l-1.18 3.771h-.768l-.489-1.638a12.165 12.165 0 0 1-.303-1.218h-.015c-.073.414-.174.82-.303 1.218l-.519 1.638h-.777l-1.11-3.771h.862l.426 1.793c.103.424.188.828.256 1.21h.015c.062-.315.166-.717.311-1.202l.535-1.8h.683l.513 1.762c.124.43.225.843.302 1.242h.023c.057-.388.142-.802.256-1.242l.458-1.762h.823zM54.558 10.746h-.838v-2.16c0-.666-.253-.998-.76-.998a.757.757 0 0 0-.606.274.975.975 0 0 0-.233.646v2.237h-.838V8.052c0-.331-.01-.69-.03-1.079h.737l.039.59h.023c.098-.183.243-.334.434-.455.227-.141.482-.212.76-.212.352 0 .645.114.878.342.29.279.434.696.434 1.25v2.259zM56.87 10.746h-.838V5.244h.838v5.502zM61.806 8.83c0 .58-.166 1.055-.497 1.428-.347.383-.808.574-1.382.574-.554 0-.995-.183-1.323-.551s-.492-.83-.492-1.389c0-.584.169-1.063.508-1.435s.795-.558 1.369-.558c.554 0 .998.183 1.336.55.32.357.481.818.481 1.381zm-.87.027c0-.348-.075-.646-.225-.895-.175-.301-.426-.451-.751-.451-.338 0-.594.15-.769.451-.15.249-.225.552-.225.91 0 .348.075.646.225.895.182.301.434.451.761.451.32 0 .57-.153.751-.459.156-.254.233-.554.233-.902zM65.864 10.746h-.753l-.062-.434h-.023c-.258.346-.625.52-1.102.52-.356 0-.644-.114-.861-.342a1.07 1.07 0 0 1-.295-.768c0-.461.192-.812.578-1.055s.928-.362 1.626-.357v-.07c0-.497-.261-.745-.783-.745-.372 0-.7.094-.983.279l-.17-.55c.35-.217.783-.326 1.294-.326.986 0 1.48.52 1.48 1.56v1.389c0 .377.018.677.054.899zm-.87-1.296v-.582c-.925-.016-1.387.238-1.387.76 0 .197.053.344.161.442s.246.147.41.147c.184 0 .356-.058.513-.174a.715.715 0 0 0 .304-.593zM70.628 10.746h-.744l-.039-.606h-.023c-.238.461-.642.691-1.211.691-.454 0-.833-.178-1.133-.535s-.45-.82-.45-1.389c0-.61.162-1.105.489-1.482a1.503 1.503 0 0 1 1.164-.528c.506 0 .861.17 1.062.512h.016V5.244h.839V9.73c0 .367.01.706.03 1.016zm-.869-1.59v-.629a.955.955 0 0 0-.326-.772.824.824 0 0 0-.561-.206.86.86 0 0 0-.738.373c-.178.249-.269.566-.269.954 0 .373.086.675.258.908a.863.863 0 0 0 .733.372.807.807 0 0 0 .662-.31c.162-.191.241-.422.241-.69zM77.798 8.83c0 .58-.166 1.055-.497 1.428-.347.383-.806.574-1.382.574-.553 0-.994-.183-1.323-.551-.328-.367-.492-.83-.492-1.389 0-.584.169-1.063.508-1.435s.795-.558 1.37-.558c.553 0 .998.183 1.334.55.32.357.481.818.481 1.381zm-.868.027c0-.348-.075-.646-.225-.895-.177-.301-.426-.451-.753-.451-.336 0-.592.15-.769.451-.15.249-.225.552-.225.91 0 .348.075.646.225.895.182.301.434.451.761.451.32 0 .572-.153.753-.459.154-.254.233-.554.233-.902zM82.306 10.746h-.838v-2.16c0-.666-.253-.998-.761-.998-.249 0-.45.091-.605.274s-.233.399-.233.646v2.237h-.839V8.052c0-.331-.01-.69-.03-1.079h.736l.039.59h.023c.098-.183.244-.334.434-.455a1.42 1.42 0 0 1 .761-.212c.351 0 .644.114.877.342.29.279.434.696.434 1.25v2.259zM87.949 7.603h-.923v1.832c0 .466.164.698.489.698.15 0 .275-.013.374-.039l.022.636a1.893 1.893 0 0 1-.651.094c-.331 0-.589-.101-.775-.302s-.28-.541-.28-1.017V7.603h-.551v-.628h.551v-.691l.822-.248v.938h.923v.629zM92.387 10.746h-.839V8.602c0-.676-.253-1.014-.759-1.014-.389 0-.654.196-.8.588a1.045 1.045 0 0 0-.039.302v2.268h-.838V5.245h.838v2.273h.016c.264-.414.642-.62 1.133-.62.347 0 .634.114.862.342.284.284.426.706.426 1.265v2.242zM96.966 8.682c0 .15-.011.277-.031.38h-2.514c.011.373.131.657.364.854.213.176.487.264.823.264.372 0 .711-.059 1.017-.178l.131.582c-.358.155-.778.233-1.266.233-.584 0-1.044-.172-1.377-.516-.334-.344-.5-.806-.5-1.385 0-.569.154-1.042.466-1.42.325-.403.764-.605 1.318-.605.542 0 .954.202 1.233.605.225.32.336.716.336 1.186zm-.8-.216a1.137 1.137 0 0 0-.162-.644c-.146-.233-.367-.35-.667-.35a.795.795 0 0 0-.667.342 1.27 1.27 0 0 0-.249.652h1.746z"/></symbol><symbol id="Google_Play" viewBox="0 0 108 32"><path fill="#100f0d" style="fill:var(--color4,#100f0d)" d="M103.999 32H4.002c-2.2 0-4-1.8-4-4V4c0-2.2 1.8-4 4-4h99.997c2.2 0 4 1.8 4 4v24c0 2.2-1.8 4-4 4z"/><path fill="#a2a2a1" style="fill:var(--color5,#a2a2a1)" d="M103.999.001H4.002c-2.2 0-4 1.8-4 4v24c0 2.2 1.8 4 4 4h99.997c2.2 0 4-1.8 4-4v-24c0-2.2-1.8-4-4-4zm0 .639a3.364 3.364 0 0 1 3.36 3.36v24a3.363 3.363 0 0 1-3.36 3.36H4.002A3.364 3.364 0 0 1 .642 28V4A3.363 3.363 0 0 1 4.002.64h99.997z"/><path fill="#fff" style="fill:var(--color3,#fff)" d="M85.549 24h1.493V13.999h-1.493zm13.445-6.398-1.711 4.336h-.051l-1.776-4.336h-1.608l2.664 6.06-1.519 3.371h1.557l4.105-9.431zm-8.466 5.262c-.488 0-1.17-.245-1.17-.849 0-.772.85-1.068 1.582-1.068.656 0 .966.141 1.364.334a1.81 1.81 0 0 1-1.776 1.583zm.181-5.481c-1.081 0-2.2.476-2.663 1.531l1.325.553c.283-.553.81-.733 1.364-.733.772 0 1.557.463 1.57 1.287v.103a3.31 3.31 0 0 0-1.557-.386c-1.429 0-2.882.785-2.882 2.251 0 1.338 1.171 2.2 2.483 2.2 1.003 0 1.558-.45 1.904-.978h.052v.772h1.442v-3.835c0-1.776-1.326-2.766-3.037-2.766zm-9.226 1.436H79.36v-3.428h2.123c1.116 0 1.75.924 1.75 1.714 0 .775-.634 1.714-1.75 1.714zm-.038-4.82h-3.577V24h1.492v-3.789h2.085c1.654 0 3.281-1.198 3.281-3.106s-1.626-3.106-3.281-3.106zM61.94 22.866c-1.031 0-1.894-.864-1.894-2.049 0-1.199.863-2.075 1.894-2.075 1.018 0 1.817.876 1.817 2.075 0 1.185-.799 2.049-1.817 2.049zm1.714-4.704h-.052c-.335-.399-.98-.76-1.791-.76-1.702 0-3.261 1.495-3.261 3.416 0 1.907 1.559 3.389 3.261 3.389.812 0 1.456-.361 1.791-.773h.052v.489c0 1.302-.696 1.998-1.817 1.998-.915 0-1.482-.657-1.714-1.211l-1.301.541c.373.902 1.366 2.011 3.016 2.011 1.753 0 3.235-1.031 3.235-3.545v-6.109h-1.418zM66.104 24h1.494V13.999h-1.494zm3.698-3.299c-.038-1.315 1.019-1.985 1.779-1.985.593 0 1.095.297 1.263.722zm4.64-1.135c-.283-.76-1.147-2.165-2.912-2.165-1.753 0-3.209 1.379-3.209 3.402 0 1.907 1.444 3.402 3.377 3.402 1.559 0 2.462-.953 2.836-1.508l-1.16-.773c-.387.567-.915.941-1.676.941s-1.302-.348-1.649-1.031l4.549-1.882zm-36.246-1.121v1.443h3.454c-.103.812-.374 1.405-.786 1.817-.503.502-1.289 1.057-2.668 1.057-2.127 0-3.789-1.714-3.789-3.841s1.662-3.841 3.789-3.841c1.147 0 1.985.451 2.603 1.031l1.018-1.018c-.864-.825-2.011-1.456-3.622-1.456-2.913 0-5.362 2.371-5.362 5.284s2.449 5.284 5.362 5.284c1.572 0 2.758-.516 3.686-1.482.954-.954 1.25-2.294 1.25-3.377a4.67 4.67 0 0 0-.078-.902zm8.863 4.421c-1.031 0-1.921-.851-1.921-2.062 0-1.224.889-2.062 1.921-2.062s1.92.837 1.92 2.062c0 1.211-.889 2.062-1.92 2.062zm0-5.465c-1.882 0-3.416 1.431-3.416 3.402 0 1.959 1.533 3.402 3.416 3.402s3.415-1.443 3.415-3.402c0-1.972-1.534-3.402-3.415-3.402zm7.451 5.465c-1.031 0-1.92-.851-1.92-2.062 0-1.224.89-2.062 1.92-2.062s1.92.837 1.92 2.062c0 1.211-.889 2.062-1.92 2.062zm0-5.465c-1.882 0-3.415 1.431-3.415 3.402 0 1.959 1.533 3.402 3.415 3.402s3.416-1.443 3.416-3.402c0-1.972-1.533-3.402-3.416-3.402z"/><path fill="#eb3131" style="fill:var(--color6,#eb3131)" d="m16.573 15.54-8.516 9.04.001.005a2.299 2.299 0 0 0 3.389 1.387l.027-.016 9.587-5.532-4.487-4.885z"/><path fill="#f6b60b" style="fill:var(--color7,#f6b60b)" d="m25.19 14.001-.008-.006-4.139-2.399-4.663 4.149 4.679 4.679 4.117-2.376a2.302 2.302 0 0 0 .014-4.047z"/><path fill="#5778c5" style="fill:var(--color8,#5778c5)" d="M8.056 7.422a2.267 2.267 0 0 0-.078.592v15.974c0 .205.027.403.078.592l8.81-8.809-8.81-8.348z"/><path fill="#3bad49" style="fill:var(--color9,#3bad49)" d="m16.636 16.001 4.408-4.407-9.576-5.552A2.302 2.302 0 0 0 8.056 7.42v.002l8.58 8.579z"/><path fill="#fff" style="fill:var(--color3,#fff)" d="M37.916 7.825h-2.334v.577h1.749c-.048.471-.235.841-.551 1.11s-.72.404-1.197.404c-.524 0-.968-.182-1.331-.545-.356-.37-.538-.828-.538-1.379s.181-1.009.538-1.379a1.816 1.816 0 0 1 1.331-.544c.269 0 .525.046.76.148s.424.242.571.424l.444-.444c-.201-.229-.456-.404-.773-.531s-.646-.189-1.002-.189c-.699 0-1.291.242-1.775.726-.484.485-.726 1.082-.726 1.789s.242 1.305.726 1.789a2.415 2.415 0 0 0 1.775.726c.734 0 1.319-.235 1.769-.713.396-.397.599-.935.599-1.607 0-.114-.014-.235-.034-.363zm.904-2.24V10.4h2.811v-.591h-2.192V8.282h1.977v-.577h-1.977V6.179h2.192v-.593zm6.753.593v-.593h-3.309v.593h1.345V10.4h.619V6.178zm2.996-.593h-.619V10.4h.619zm4.084.593v-.593h-3.309v.593h1.345V10.4h.619V6.178zm6.243.034c-.477-.491-1.063-.734-1.761-.734-.7 0-1.285.242-1.762.726-.477.478-.712 1.076-.712 1.789s.235 1.311.712 1.789c.477.484 1.063.726 1.762.726.692 0 1.284-.243 1.761-.726.477-.477.712-1.076.712-1.789 0-.706-.235-1.304-.712-1.781zm-3.08.402a1.775 1.775 0 0 1 1.319-.544c.524 0 .961.181 1.311.544.356.356.531.821.531 1.379 0 .559-.175 1.022-.531 1.379-.35.362-.788.545-1.311.545-.525 0-.962-.182-1.319-.545-.349-.364-.524-.82-.524-1.379 0-.558.175-1.015.524-1.379zm5.263.788-.026-.929h.026l2.447 3.927h.646V5.585h-.619v2.817l.026.929h-.026l-2.34-3.746h-.754V10.4h.619z"/></symbol><symbol id="youtube" viewBox="0 0 32 32"><path d="M24.454 12.548s-.173-1.191-.691-1.709c-.653-.691-1.392-.691-1.728-.73-2.41-.173-6.039-.173-6.039-.173h-.01s-3.62 0-6.039.173c-.336.038-1.075.048-1.728.73-.518.518-.682 1.709-.682 1.709s-.173 1.392-.173 2.794v1.306c0 1.392.173 2.794.173 2.794s.173 1.191.682 1.709c.653.691 1.517.662 1.901.739 1.383.134 5.866.173 5.866.173s3.629-.01 6.039-.182c.336-.038 1.075-.048 1.728-.73.518-.518.691-1.709.691-1.709s.173-1.392.173-2.794v-1.306c0-1.392-.173-2.794-.173-2.794zM16.005 0c4.416 0 8.42 1.795 11.32 4.685a15.943 15.943 0 0 1 4.685 11.32c0 4.416-1.795 8.42-4.685 11.32a15.94 15.94 0 0 1-11.32 4.685c-4.416 0-8.42-1.795-11.32-4.685A15.936 15.936 0 0 1 0 16.005c0-4.416 1.795-8.42 4.685-11.32A15.936 15.936 0 0 1 16.005 0zm10.494 5.501c-2.688-2.688-6.394-4.349-10.494-4.349S8.19 2.813 5.511 5.501c-2.688 2.688-4.349 6.394-4.349 10.494s1.661 7.815 4.349 10.494c2.688 2.688 6.394 4.349 10.494 4.349s7.815-1.661 10.494-4.349c2.688-2.688 4.349-6.394 4.349-10.494S29.187 8.18 26.499 5.501zm-12.29 12.741v-4.848l4.666 2.429-4.666 2.419z"/></symbol><symbol id="facebook" viewBox="0 0 32 32"><path d="M13.6 11.373v3.043h-2.435v3.648H13.6v8.518h3.648v-8.515h3.651v-3.648h-3.648v-2.435c0-.73.486-1.216 1.216-1.216h2.435V7.117h-3.046c-2.31 0-4.256 1.946-4.256 4.256z"/><path d="M16 .32C7.376.32.32 7.376.32 16c0 8.621 7.056 15.68 15.68 15.68S31.68 24.624 31.68 16C31.68 7.376 24.624.32 16 .32zm0 30.054c-7.907 0-14.374-6.47-14.374-14.374S8.093 1.626 16 1.626 30.374 8.096 30.374 16c0 7.904-6.467 14.374-14.374 14.374z"/></symbol><symbol id="telegram" viewBox="0 0 32 32"><path d="M16 32C7.2 32 0 24.8 0 16S7.2 0 16 0s16 7.2 16 16-7.2 16-16 16zm0-30.4C8.08 1.6 1.6 8.08 1.6 16S8.08 30.4 16 30.4 30.4 23.92 30.4 16 23.92 1.6 16 1.6z"/><path d="m13.36 19.28 7.44-6.72c.32-.32-.08-.4-.48-.16l-9.12 5.76-3.92-1.2c-.88-.24-.88-.88.16-1.28l15.44-5.92c.72-.32 1.36.16 1.12 1.28l-2.64 12.4c-.16.88-.72 1.12-1.44.72l-4-2.96L14 23.04c-.24.24-.56.24-.56 0l-.08-3.76z"/></symbol><symbol id="icon-person-black-18dp-1" viewBox="0 0 32 32"><path d="M16 16c2.947 0 5.333-2.387 5.333-5.333S18.946 5.334 16 5.334c-2.947 0-5.333 2.387-5.333 5.333S13.054 16 16 16zm0 2.667c-3.56 0-10.667 1.787-10.667 5.333v1.333c0 .733.6 1.333 1.333 1.333h18.667c.733 0 1.333-.6 1.333-1.333V24c0-3.547-7.107-5.333-10.667-5.333z"/></symbol><symbol id="icon-email-black-18dp-1" viewBox="0 0 32 32"><path d="M26.667 5.333H5.334A2.663 2.663 0 0 0 2.681 8l-.013 16c0 1.467 1.2 2.667 2.667 2.667h21.333c1.467 0 2.667-1.2 2.667-2.667V8c0-1.467-1.2-2.667-2.667-2.667zM26.133 11l-9.427 5.893a1.346 1.346 0 0 1-1.413 0L5.866 11a1.132 1.132 0 1 1 1.2-1.92l8.933 5.587 8.933-5.587a1.132 1.132 0 1 1 1.2 1.92z"/></symbol><symbol id="icon-key" viewBox="0 0 32 32"><path d="M22 0c-5.523 0-10 4.477-10 10 0 .626.058 1.238.168 1.832L0 24v6a2 2 0 0 0 2 2h2v-2h4v-4h4v-4h4l2.595-2.595A9.977 9.977 0 0 0 22 20c5.523 0 10-4.477 10-10S27.523 0 22 0zm2.996 10.004a3 3 0 1 1 0-6 3 3 0 0 1 0 6z"/></symbol><symbol id="icon-eye" viewBox="0 0 32 32"><path d="M16 6C9.021 6 2.972 10.064 0 16c2.972 5.936 9.021 10 16 10s13.027-4.064 16-10c-2.972-5.936-9.021-10-16-10zm7.889 5.303A15.212 15.212 0 0 1 28.559 16a15.223 15.223 0 0 1-4.67 4.697C21.527 22.204 18.799 23 16 23s-5.527-.796-7.889-2.303A15.212 15.212 0 0 1 3.441 16a15.223 15.223 0 0 1 5.041-4.925 8 8 0 1 0 15.036 0c.124.074.248.15.371.228zM16 13a3 3 0 1 1-6 0 3 3 0 0 1 6 0z"/></symbol><symbol id="icon-eye-blocked" viewBox="0 0 32 32"><symbol id="signout" viewBox="0 0 32 32"><path d="M24 20v-4H14v-4h10V8l6 6zm-2-2v8H12v6L0 26V0h22v10h-2V2H4l8 4v18h8v-6z"/></symbol><symbol id="book" viewBox="0 0 32 32"><path d="M28 4v26H7a3 3 0 1 1 0-6h19V0H6C3.8 0 2 1.8 2 4v24c0 2.2 1.8 4 4 4h24V4h-2z"/><path d="M7.002 26H7a1 1 0 0 0 0 2h18.999v-2H7.002z"/></symbol></symbol></defs></svg>