<svg aria-hidden="true" style="position: absolute; width: 0; height: 0; overflow: hidden;" version="1.1" xmlns="http://www.w3.org/2000/svg" xmlns:xlink="http://www.w3.org/1999/xlink">
<defs>
<symbol id="search" viewBox="0 0 32 32"><path fill="none" stroke="#fff" style="stroke: var(--color1, #fff)" stroke-linejoin="round" stroke-linecap="round" stroke-miterlimit="4" stroke-width="2.6667" d="M14.667 25.333c5.891 0 10.667-4.776 10.667-10.667s-4.776-10.667-10.667-10.667v0c-5.891 0-10.667 4.776-10.667 10.667s4.776 10.667 10.667 10.667v0zM28 28l-5.8-5.8"></path></symbol>
<symbol id="logo" viewBox="0 0 32 32"><path fill="none" stroke="#fff" style="stroke: var(--color1, #fff)" stroke-linejoin="round" stroke-linecap="round" stroke-miterlimit="4" stroke-width="2.6667" d="M26.427 2.667h-20.853c-1.605 0-2.907 1.301-2.907 2.907v0 20.853c0 1.605 1.301 2.907 2.907 2.907v0h20.853c1.605 0 2.907-1.301 2.907-2.907v0-20.853c0-1.605-1.301-2.907-2.907-2.907v0zM9.333 2.667v26.667M22.667 2.667v26.667M2.667 16h26.667M2.667 9.333h6.667M2.667 22.667h6.667M22.667 22.667h6.667M22.667 9.333h6.667"></path></symbol>
<symbol id="heart" viewBox="0 0 34 32"><path fill="#ff6b08" style="fill: var(--color1, #ff6b08)" d="M17.231 31.705l-2.412-2.412c-8.96-7.926-14.818-13.268-14.818-19.815 0-5.342 4.135-9.477 9.477-9.477 2.929 0 5.858 1.378 7.754 3.618 1.895-2.24 4.825-3.618 7.754-3.618 5.342 0 9.477 4.135 9.477 9.477 0 6.548-5.858 11.889-14.818 19.815l-2.412 2.412z"></path></symbol>
<symbol id="filters" viewBox="0 0 32 32"><path d="M14 4v-0.5c0-0.825-0.675-1.5-1.5-1.5h-5c-0.825 0-1.5 0.675-1.5 1.5v0.5h-6v4h6v0.5c0 0.825 0.675 1.5 1.5 1.5h5c0.825 0 1.5-0.675 1.5-1.5v-0.5h18v-4h-18zM8 8v-4h4v4h-4zM26 13.5c0-0.825-0.675-1.5-1.5-1.5h-5c-0.825 0-1.5 0.675-1.5 1.5v0.5h-18v4h18v0.5c0 0.825 0.675 1.5 1.5 1.5h5c0.825 0 1.5-0.675 1.5-1.5v-0.5h6v-4h-6v-0.5zM20 18v-4h4v4h-4zM14 23.5c0-0.825-0.675-1.5-1.5-1.5h-5c-0.825 0-1.5 0.675-1.5 1.5v0.5h-6v4h6v0.5c0 0.825 0.675 1.5 1.5 1.5h5c0.825 0 1.5-0.675 1.5-1.5v-0.5h18v-4h-18v-0.5zM8 28v-4h4v4h-4z"></path></symbol>
<symbol id="settings" viewBox="0 0 32 32"><path d="M11.366 22.564l1.291-1.807-1.414-1.414-1.807 1.291c-0.335-0.187-0.694-0.337-1.071-0.444l-0.365-2.19h-2l-0.365 2.19c-0.377 0.107-0.736 0.256-1.071 0.444l-1.807-1.291-1.414 1.414 1.291 1.807c-0.187 0.335-0.337 0.694-0.443 1.071l-2.19 0.365v2l2.19 0.365c0.107 0.377 0.256 0.736 0.444 1.071l-1.291 1.807 1.414 1.414 1.807-1.291c0.335 0.187 0.694 0.337 1.071 0.444l0.365 2.19h2l0.365-2.19c0.377-0.107 0.736-0.256 1.071-0.444l1.807 1.291 1.414-1.414-1.291-1.807c0.187-0.335 0.337-0.694 0.444-1.071l2.19-0.365v-2l-2.19-0.365c-0.107-0.377-0.256-0.736-0.444-1.071zM7 27c-1.105 0-2-0.895-2-2s0.895-2 2-2 2 0.895 2 2-0.895 2-2 2zM32 12v-2l-2.106-0.383c-0.039-0.251-0.088-0.499-0.148-0.743l1.799-1.159-0.765-1.848-2.092 0.452c-0.132-0.216-0.273-0.426-0.422-0.629l1.219-1.761-1.414-1.414-1.761 1.219c-0.203-0.149-0.413-0.29-0.629-0.422l0.452-2.092-1.848-0.765-1.159 1.799c-0.244-0.059-0.492-0.109-0.743-0.148l-0.383-2.106h-2l-0.383 2.106c-0.251 0.039-0.499 0.088-0.743 0.148l-1.159-1.799-1.848 0.765 0.452 2.092c-0.216 0.132-0.426 0.273-0.629 0.422l-1.761-1.219-1.414 1.414 1.219 1.761c-0.149 0.203-0.29 0.413-0.422 0.629l-2.092-0.452-0.765 1.848 1.799 1.159c-0.059 0.244-0.109 0.492-0.148 0.743l-2.106 0.383v2l2.106 0.383c0.039 0.251 0.088 0.499 0.148 0.743l-1.799 1.159 0.765 1.848 2.092-0.452c0.132 0.216 0.273 0.426 0.422 0.629l-1.219 1.761 1.414 1.414 1.761-1.219c0.203 0.149 0.413 0.29 0.629 0.422l-0.452 2.092 1.848 0.765 1.159-1.799c0.244 0.059 0.492 0.109 0.743 0.148l0.383 2.106h2l0.383-2.106c0.251-0.039 0.499-0.088 0.743-0.148l1.159 1.799 1.848-0.765-0.452-2.092c0.216-0.132 0.426-0.273 0.629-0.422l1.761 1.219 1.414-1.414-1.219-1.761c0.149-0.203 0.29-0.413 0.422-0.629l2.092 0.452 0.765-1.848-1.799-1.159c0.059-0.244 0.109-0.492 0.148-0.743l2.106-0.383zM21 15.35c-2.402 0-4.35-1.948-4.35-4.35s1.948-4.35 4.35-4.35 4.35 1.948 4.35 4.35c0 2.402-1.948 4.35-4.35 4.35z"></path></symbol>
<symbol id="enter" viewBox="0 0 32 32"><path d="M12 16h-10v-4h10v-4l6 6-6 6zM32 0v26l-12 6v-6h-12v-8h2v6h10v-18l8-4h-18v8h-2v-10z"></path></symbol>
<symbol id="home" viewBox="0 0 32 32"><path d="M32 18.451l-16-12.42-16 12.42v-5.064l16-12.42 16 12.42zM28 18v12h-8v-8h-8v8h-8v-12l12-9z"></path></symbol>
<symbol id="genres" viewBox="0 0 32 32"><path d="M0 32c4-12 14.469-32 32-32-8.219 6.594-12 22-18 22s-6 0-6 0l-6 10h-2z"></path></symbol>
<symbol id="date" viewBox="0 0 32 32"><path d="M22.781 16c4.305-2.729 7.219-7.975 7.219-14 0-0.677-0.037-1.345-0.109-2h-27.783c-0.072 0.655-0.109 1.323-0.109 2 0 6.025 2.914 11.271 7.219 14-4.305 2.729-7.219 7.975-7.219 14 0 0.677 0.037 1.345 0.109 2h27.783c0.072-0.655 0.109-1.323 0.109-2 0-6.025-2.914-11.271-7.219-14zM5 30c0-5.841 2.505-10.794 7-12.428v-3.143c-4.495-1.634-7-6.587-7-12.428v0h22c0 5.841-2.505 10.794-7 12.428v3.143c4.495 1.634 7 6.587 7 12.428h-22zM19.363 20.925c-2.239-1.27-2.363-2.918-2.363-3.918v-2.007c0-1 0.119-2.654 2.367-3.927 1.203-0.699 2.244-1.761 3.033-3.073h-12.799c0.79 1.313 1.832 2.376 3.036 3.075 2.239 1.27 2.363 2.918 2.363 3.918v2.007c0 1-0.119 2.654-2.367 3.927-2.269 1.318-3.961 3.928-4.472 7.073h15.677c-0.511-3.147-2.204-5.758-4.475-7.075z"></path></symbol>
<symbol id="sort" viewBox="0 0 32 32"><path d="M10 24v-24h-4v24h-5l7 7 7-7h-5z"></path><path d="M14 0h18v4h-18v-4z"></path><path d="M14 6h14v4h-14v-4z"></path><path d="M14 12h10v4h-10v-4z"></path><path d="M14 18h6v4h-6v-4z"></path></symbol>
<symbol id="theme" viewBox="0 0 32 32"><path d="M16 8c-4.418 0-8 3.582-8 8s3.582 8 8 8 8-3.582 8-8-3.582-8-8-8zM16 21v-10c2.757 0 5 2.243 5 5s-2.243 5-5 5zM16 26c1.105 0 2 0.895 2 2v2c0 1.105-0.895 2-2 2s-2-0.895-2-2v-2c0-1.105 0.895-2 2-2zM16 6c-1.105 0-2-0.895-2-2v-2c0-1.105 0.895-2 2-2s2 0.895 2 2v2c0 1.105-0.895 2-2 2zM30 14c1.105 0 2 0.895 2 2s-0.895 2-2 2h-2c-1.105 0-2-0.895-2-2s0.895-2 2-2h2zM6 16c0 1.105-0.895 2-2 2h-2c-1.105 0-2-0.895-2-2s0.895-2 2-2h2c1.105 0 2 0.895 2 2zM25.899 23.071l1.414 1.414c0.781 0.781 0.781 2.047 0 2.828s-2.047 0.781-2.828 0l-1.414-1.414c-0.781-0.781-0.781-2.047 0-2.828s2.047-0.781 2.828 0zM6.101 8.929l-1.414-1.414c-0.781-0.781-0.781-2.047 0-2.828s2.047-0.781 2.828 0l1.414 1.414c0.781 0.781 0.781 2.047 0 2.828s-2.047 0.781-2.828 0zM25.899 8.929c-0.781 0.781-2.047 0.781-2.828 0s-0.781-2.047 0-2.828l1.414-1.414c0.781-0.781 2.047-0.781 2.828 0s0.781 2.047 0 2.828l-1.414 1.414zM6.101 23.071c0.781-0.781 2.047-0.781 2.828 0s0.781 2.047 0 2.828l-1.414 1.414c-0.781 0.781-2.047 0.781-2.828 0s-0.781-2.047 0-2.828l1.414-1.414z"></path></symbol>
<symbol id="reset" viewBox="0 0 32 32"><path d="M16 2c-4.418 0-8.418 1.791-11.313 4.687l-4.686-4.687v12h12l-4.485-4.485c2.172-2.172 5.172-3.515 8.485-3.515 6.627 0 12 5.373 12 12 0 3.584-1.572 6.801-4.063 9l2.646 3c3.322-2.932 5.417-7.221 5.417-12 0-8.837-7.163-16-16-16z"></path></symbol>
<symbol id="close" viewBox="0 0 32 32">
<path d="M24.224 9.291l-1.515-1.515-6.709 6.72-6.709-6.72-1.515 1.515 6.72 6.709-6.72 6.709 1.515 1.515 6.709-6.72 6.709 6.72 1.515-1.515-6.72-6.709z"></path></symbol>
<symbol id="icon-circle-up" viewBox="0 0 32 32">
<path d="M0 16c0 8.837 7.163 16 16 16s16-7.163 16-16-7.163-16-16-16-16 7.163-16 16zM29 16c0 7.18-5.82 13-13 13s-13-5.82-13-13 5.82-13 13-13 13 5.82 13 13z"></path>
<path d="M22.086 20.914l2.829-2.829-8.914-8.914-8.914 8.914 2.828 2.828 6.086-6.086z"></path>
</symbol>
<symbol id="linkedin" viewBox="0 0 32 32"><path d="M31.992 32v-.001H32V20.263c0-5.741-1.236-10.164-7.948-10.164-3.227 0-5.392 1.771-6.276 3.449h-.093v-2.913h-6.364v21.364h6.627V21.42c0-2.785.528-5.479 3.977-5.479 3.399 0 3.449 3.179 3.449 5.657v10.401h6.62zM.528 10.636h6.635V32H.528V10.636zM3.843 0C1.722 0 0 1.721 0 3.843s1.721 3.879 3.843 3.879c2.121 0 3.843-1.757 3.843-3.879A3.846 3.846 0 0 0 3.843 0z"/></symbol>
<symbol id="github" viewBox="0 0 32 32">
<path fill="#F05133" style="fill: var(--color2, #F05133)" d="M32 16c0 8.837-7.163 16-16 16s-16-7.163-16-16c0-8.837 7.163-16 16-16s16 7.163 16 16z"></path>
<path  d="M16 6.588c-5.169 0-9.412 4.242-9.412 9.412 0 4.411 3.095 8.419 7.206 9.412v-3.114c-0.407 0.089-0.782 0.092-1.197-0.030-0.556-0.164-1.008-0.535-1.344-1.1-0.214-0.361-0.593-0.752-0.988-0.723l-0.097-1.099c0.855-0.073 1.595 0.521 2.034 1.259 0.195 0.328 0.419 0.52 0.708 0.605 0.278 0.082 0.578 0.043 0.926-0.080 0.088-0.698 0.407-0.959 0.648-1.326v-0.001c-2.451-0.366-3.428-1.666-3.816-2.693-0.514-1.363-0.238-3.066 0.671-4.142 0.018-0.021 0.050-0.076 0.037-0.114-0.417-1.258 0.091-2.299 0.11-2.41 0.481 0.142 0.559-0.143 2.089 0.786l0.264 0.159c0.111 0.066 0.076 0.028 0.186 0.020 0.639-0.173 1.312-0.269 1.975-0.278 0.668 0.009 1.337 0.104 2.002 0.285l0.086 0.009c-0.007-0.001 0.023-0.005 0.075-0.036 1.911-1.157 1.842-0.779 2.355-0.946 0.019 0.111 0.519 1.169 0.107 2.411-0.056 0.171 1.657 1.739 0.708 4.256-0.388 1.027-1.365 2.328-3.816 2.693v0.001c0.314 0.479 0.692 0.734 0.69 1.722v3.887c4.111-0.993 7.206-5 7.206-9.412 0-5.169-4.242-9.412-9.412-9.412v0z"></path>
</symbol>
<symbol id="close-modal" viewBox="0 0 32 32">
<path d="M17.254 16l7.369-7.369c0.146-0.17 0.222-0.389 0.213-0.613s-0.101-0.436-0.26-0.594c-0.158-0.158-0.37-0.251-0.594-0.26s-0.442 0.067-0.613 0.213l-7.369 7.369-7.369-7.378c-0.167-0.167-0.394-0.261-0.631-0.261s-0.464 0.094-0.631 0.261c-0.167 0.167-0.261 0.394-0.261 0.631s0.094 0.464 0.261 0.631l7.378 7.369-7.378 7.369c-0.093 0.080-0.169 0.178-0.222 0.288s-0.083 0.23-0.088 0.353 0.016 0.245 0.061 0.359c0.045 0.114 0.112 0.218 0.199 0.304s0.19 0.154 0.304 0.199c0.114 0.045 0.236 0.065 0.359 0.061s0.243-0.035 0.353-0.088c0.11-0.053 0.208-0.129 0.288-0.222l7.378-7.369 7.369 7.369c0.17 0.146 0.389 0.222 0.613 0.213s0.436-0.101 0.594-0.26c0.158-0.158 0.251-0.371 0.26-0.594s-0.068-0.443-0.213-0.613l-7.369-7.369z"></path>
</symbol>
<symbol id="logo-footer" viewBox="0 0 32 32"><path fill='none' stroke="#ff6b08" style="stroke: var(--color1, #ff6b08)" stroke-linejoin="round" stroke-linecap="round" stroke-miterlimit="4" stroke-width="2.6667" d="M26.427 2.667h-20.853c-1.605 0-2.907 1.301-2.907 2.907v0 20.853c0 1.605 1.301 2.907 2.907 2.907v0h20.853c1.605 0 2.907-1.301 2.907-2.907v0-20.853c0-1.605-1.301-2.907-2.907-2.907v0zM9.333 2.667v26.667M22.667 2.667v26.667M2.667 16h26.667M2.667 9.333h6.667M2.667 22.667h6.667M22.667 22.667h6.667M22.667 9.333h6.667"></path></symbol>
<symbol id="App_Store" viewBox="0 0 108 32">
<path fill="#a6a6a6" style="fill: var(--color1, #a6a6a6)" d="M104.158 32h-100.374c-2.086 0-3.783-1.702-3.783-3.786v-24.433c0-2.085 1.698-3.781 3.783-3.781h100.374c2.085 0 3.842 1.696 3.842 3.781v24.433c0 2.084-1.758 3.786-3.842 3.786v0z"></path>
<path fill="#000" style="fill: var(--color2, #000)" d="M107.226 28.214c0 1.693-1.371 3.064-3.067 3.064h-100.375c-1.695 0-3.071-1.371-3.071-3.064v-24.434c0-1.692 1.376-3.068 3.071-3.068h100.374c1.697 0 3.067 1.376 3.067 3.068l0.001 24.434z"></path>
<path fill="#fff" style="fill: var(--color3, #fff)" d="M24.102 15.827c-0.023-2.578 2.111-3.833 2.209-3.891-1.209-1.762-3.082-2.003-3.741-2.022-1.574-0.166-3.1 0.942-3.902 0.942-0.818 0-2.052-0.926-3.382-0.898-1.712 0.026-3.314 1.018-4.192 2.557-1.813 3.138-0.461 7.75 1.276 10.287 0.869 1.242 1.884 2.63 3.213 2.581 1.3-0.054 1.786-0.829 3.354-0.829 1.554 0 2.010 0.829 3.366 0.798 1.395-0.022 2.274-1.248 3.112-2.502 1.004-1.424 1.407-2.826 1.423-2.898-0.033-0.011-2.71-1.033-2.736-4.123z"></path>
<path fill="#fff" style="fill: var(--color3, #fff)" d="M21.542 8.245c0.699-0.874 1.178-2.064 1.045-3.271-1.012 0.045-2.278 0.7-3.006 1.555-0.645 0.754-1.221 1.989-1.072 3.15 1.137 0.085 2.304-0.574 3.034-1.434z"></path>
<path fill="#fff" style="fill: var(--color3, #fff)" d="M42.916 25.203h-1.817l-0.995-3.127h-3.459l-0.948 3.127h-1.769l3.427-10.646h2.117l3.444 10.646zM39.804 20.764l-0.9-2.78c-0.095-0.284-0.274-0.953-0.537-2.006h-0.032c-0.105 0.453-0.274 1.122-0.506 2.006l-0.884 2.78h2.858z"></path>
<path fill="#fff" style="fill: var(--color3, #fff)" d="M51.73 21.27c0 1.306-0.353 2.338-1.058 3.095-0.632 0.674-1.417 1.011-2.354 1.011-1.011 0-1.738-0.363-2.18-1.090h-0.032v4.044h-1.706v-8.278c0-0.821-0.022-1.663-0.063-2.527h1.5l0.095 1.217h0.032c0.569-0.917 1.432-1.374 2.59-1.374 0.906 0 1.662 0.358 2.266 1.074 0.606 0.717 0.909 1.659 0.909 2.828zM49.992 21.333c0-0.747-0.168-1.363-0.506-1.848-0.369-0.506-0.864-0.758-1.485-0.758-0.421 0-0.803 0.141-1.145 0.418-0.342 0.28-0.566 0.646-0.671 1.098-0.053 0.211-0.079 0.384-0.079 0.52v1.28c0 0.558 0.171 1.030 0.514 1.414s0.787 0.577 1.334 0.577c0.642 0 1.142-0.248 1.5-0.742s0.538-1.148 0.538-1.959z"></path>
<path fill="#fff" style="fill: var(--color3, #fff)" d="M60.559 21.27c0 1.306-0.353 2.338-1.059 3.095-0.631 0.674-1.416 1.011-2.353 1.011-1.011 0-1.738-0.363-2.179-1.090h-0.032v4.044h-1.706v-8.278c0-0.821-0.022-1.663-0.063-2.527h1.5l0.095 1.217h0.032c0.568-0.917 1.431-1.374 2.59-1.374 0.905 0 1.661 0.358 2.267 1.074 0.604 0.717 0.907 1.659 0.907 2.828zM58.822 21.333c0-0.747-0.169-1.363-0.506-1.848-0.369-0.506-0.862-0.758-1.484-0.758-0.422 0-0.803 0.141-1.146 0.418-0.342 0.28-0.566 0.646-0.67 1.098-0.052 0.211-0.079 0.384-0.079 0.52v1.28c0 0.558 0.171 1.030 0.512 1.414 0.342 0.384 0.787 0.577 1.336 0.577 0.642 0 1.142-0.248 1.5-0.742s0.538-1.148 0.538-1.959z"></path>
<path fill="#fff" style="fill: var(--color3, #fff)" d="M70.431 22.218c0 0.906-0.314 1.642-0.946 2.211-0.694 0.622-1.659 0.932-2.9 0.932-1.146 0-2.064-0.221-2.759-0.663l0.395-1.422c0.749 0.453 1.57 0.68 2.466 0.68 0.642 0 1.142-0.146 1.502-0.435 0.358-0.29 0.536-0.678 0.536-1.163 0-0.432-0.147-0.796-0.442-1.091-0.294-0.295-0.784-0.57-1.469-0.823-1.864-0.695-2.795-1.714-2.795-3.053 0-0.875 0.326-1.593 0.98-2.151 0.651-0.559 1.52-0.838 2.606-0.838 0.969 0 1.774 0.169 2.416 0.506l-0.426 1.39c-0.6-0.326-1.278-0.49-2.038-0.49-0.6 0-1.069 0.148-1.405 0.442-0.284 0.263-0.426 0.584-0.426 0.964 0 0.421 0.162 0.769 0.489 1.042 0.284 0.253 0.8 0.526 1.549 0.822 0.916 0.369 1.589 0.8 2.022 1.294 0.431 0.493 0.646 1.11 0.646 1.846z"></path>
<path fill="#fff" style="fill: var(--color3, #fff)" d="M76.070 18.806h-1.88v3.727c0 0.948 0.331 1.422 0.995 1.422 0.305 0 0.558-0.026 0.758-0.079l0.047 1.295c-0.336 0.126-0.778 0.189-1.326 0.189-0.674 0-1.2-0.206-1.58-0.616-0.378-0.411-0.569-1.101-0.569-2.070v-3.87h-1.12v-1.28h1.12v-1.406l1.675-0.506v1.911h1.88v1.282z"></path>
<path fill="#fff" style="fill: var(--color3, #fff)" d="M84.553 21.302c0 1.18-0.338 2.149-1.011 2.906-0.706 0.78-1.644 1.169-2.813 1.169-1.126 0-2.023-0.374-2.692-1.121s-1.003-1.69-1.003-2.827c0-1.19 0.344-2.164 1.034-2.922 0.689-0.758 1.618-1.138 2.787-1.138 1.126 0 2.033 0.374 2.717 1.122 0.654 0.726 0.981 1.662 0.981 2.81zM82.783 21.357c0-0.708-0.151-1.315-0.458-1.822-0.358-0.613-0.869-0.918-1.531-0.918-0.686 0-1.206 0.306-1.564 0.918-0.306 0.507-0.458 1.124-0.458 1.854 0 0.708 0.151 1.315 0.458 1.821 0.369 0.613 0.884 0.918 1.549 0.918 0.651 0 1.162-0.312 1.531-0.934 0.314-0.516 0.473-1.13 0.473-1.837z"></path>
<path fill="#fff" style="fill: var(--color3, #fff)" d="M90.097 19.026c-0.169-0.031-0.349-0.047-0.538-0.047-0.6 0-1.064 0.226-1.39 0.68-0.284 0.4-0.426 0.906-0.426 1.516v4.028h-1.705l0.016-5.259c0-0.885-0.022-1.69-0.064-2.417h1.486l0.062 1.469h0.047c0.18-0.505 0.464-0.911 0.853-1.216 0.38-0.274 0.79-0.411 1.233-0.411 0.158 0 0.3 0.011 0.426 0.031v1.626z"></path>
<path fill="#fff" style="fill: var(--color3, #fff)" d="M97.725 21.002c0 0.306-0.020 0.563-0.062 0.774h-5.117c0.020 0.758 0.267 1.338 0.742 1.738 0.431 0.358 0.989 0.537 1.674 0.537 0.758 0 1.449-0.121 2.070-0.363l0.267 1.184c-0.726 0.317-1.584 0.474-2.574 0.474-1.19 0-2.125-0.35-2.805-1.050-0.678-0.7-1.018-1.64-1.018-2.819 0-1.158 0.316-2.122 0.949-2.89 0.662-0.821 1.558-1.231 2.684-1.231 1.106 0 1.944 0.41 2.513 1.231 0.45 0.652 0.677 1.458 0.677 2.416zM96.098 20.559c0.011-0.506-0.1-0.942-0.331-1.311-0.295-0.474-0.749-0.711-1.359-0.711-0.558 0-1.011 0.231-1.358 0.695-0.284 0.369-0.453 0.811-0.505 1.326h3.553z"></path>
<path fill="#fff" style="fill: var(--color3, #fff)" d="M39.24 8.007c0 0.942-0.282 1.65-0.846 2.126-0.522 0.439-1.265 0.659-2.226 0.659-0.477 0-0.885-0.021-1.226-0.062v-5.145c0.446-0.072 0.926-0.109 1.444-0.109 0.916 0 1.606 0.199 2.072 0.598 0.522 0.45 0.783 1.094 0.783 1.933zM38.356 8.030c0-0.61-0.162-1.078-0.485-1.405s-0.795-0.489-1.417-0.489c-0.264 0-0.489 0.018-0.675 0.054v3.911c0.103 0.016 0.292 0.023 0.566 0.023 0.642 0 1.137-0.178 1.486-0.535s0.525-0.877 0.525-1.56z"></path>
<path fill="#fff" style="fill: var(--color3, #fff)" d="M43.927 8.83c0 0.58-0.166 1.055-0.497 1.428-0.347 0.383-0.807 0.574-1.382 0.574-0.554 0-0.994-0.183-1.323-0.551s-0.492-0.83-0.492-1.389c0-0.584 0.169-1.063 0.508-1.435s0.795-0.558 1.37-0.558c0.554 0 0.998 0.183 1.335 0.55 0.32 0.357 0.481 0.818 0.481 1.381zM43.058 8.857c0-0.348-0.075-0.646-0.225-0.895-0.176-0.301-0.426-0.451-0.752-0.451-0.337 0-0.593 0.15-0.769 0.451-0.15 0.249-0.225 0.552-0.225 0.91 0 0.348 0.075 0.646 0.225 0.895 0.182 0.301 0.434 0.451 0.761 0.451 0.32 0 0.571-0.153 0.752-0.459 0.155-0.254 0.233-0.554 0.233-0.902z"></path>
<path fill="#fff" style="fill: var(--color3, #fff)" d="M50.212 6.975l-1.18 3.771h-0.768l-0.489-1.638c-0.124-0.409-0.225-0.815-0.303-1.218h-0.015c-0.073 0.414-0.174 0.82-0.303 1.218l-0.519 1.638h-0.777l-1.11-3.771h0.862l0.426 1.793c0.103 0.424 0.188 0.828 0.256 1.21h0.015c0.062-0.315 0.166-0.717 0.311-1.202l0.535-1.8h0.683l0.513 1.762c0.124 0.43 0.225 0.843 0.302 1.242h0.023c0.057-0.388 0.142-0.802 0.256-1.242l0.458-1.762h0.823z"></path>
<path fill="#fff" style="fill: var(--color3, #fff)" d="M54.558 10.746h-0.838v-2.16c0-0.666-0.253-0.998-0.76-0.998-0.249 0-0.45 0.091-0.606 0.274-0.154 0.183-0.233 0.399-0.233 0.646v2.237h-0.838v-2.693c0-0.331-0.010-0.69-0.030-1.079h0.737l0.039 0.59h0.023c0.098-0.183 0.243-0.334 0.434-0.455 0.227-0.141 0.482-0.212 0.76-0.212 0.352 0 0.645 0.114 0.878 0.342 0.29 0.279 0.434 0.696 0.434 1.25v2.259z"></path>
<path fill="#fff" style="fill: var(--color3, #fff)" d="M56.87 10.746h-0.838v-5.502h0.838v5.502z"></path>
<path fill="#fff" style="fill: var(--color3, #fff)" d="M61.806 8.83c0 0.58-0.166 1.055-0.497 1.428-0.347 0.383-0.808 0.574-1.382 0.574-0.554 0-0.995-0.183-1.323-0.551s-0.492-0.83-0.492-1.389c0-0.584 0.169-1.063 0.508-1.435s0.795-0.558 1.369-0.558c0.554 0 0.998 0.183 1.336 0.55 0.32 0.357 0.481 0.818 0.481 1.381zM60.936 8.857c0-0.348-0.075-0.646-0.225-0.895-0.175-0.301-0.426-0.451-0.751-0.451-0.338 0-0.594 0.15-0.769 0.451-0.15 0.249-0.225 0.552-0.225 0.91 0 0.348 0.075 0.646 0.225 0.895 0.182 0.301 0.434 0.451 0.761 0.451 0.32 0 0.57-0.153 0.751-0.459 0.156-0.254 0.233-0.554 0.233-0.902z"></path>
<path fill="#fff" style="fill: var(--color3, #fff)" d="M65.864 10.746h-0.753l-0.062-0.434h-0.023c-0.258 0.346-0.625 0.52-1.102 0.52-0.356 0-0.644-0.114-0.861-0.342-0.197-0.206-0.295-0.463-0.295-0.768 0-0.461 0.192-0.812 0.578-1.055s0.928-0.362 1.626-0.357v-0.070c0-0.497-0.261-0.745-0.783-0.745-0.372 0-0.7 0.094-0.983 0.279l-0.17-0.55c0.35-0.217 0.783-0.326 1.294-0.326 0.986 0 1.48 0.52 1.48 1.56v1.389c0 0.377 0.018 0.677 0.054 0.899zM64.994 9.45v-0.582c-0.925-0.016-1.387 0.238-1.387 0.76 0 0.197 0.053 0.344 0.161 0.442s0.246 0.147 0.41 0.147c0.184 0 0.356-0.058 0.513-0.174s0.254-0.265 0.29-0.446c0.009-0.041 0.014-0.090 0.014-0.147z"></path>
<path fill="#fff" style="fill: var(--color3, #fff)" d="M70.628 10.746h-0.744l-0.039-0.606h-0.023c-0.238 0.461-0.642 0.691-1.211 0.691-0.454 0-0.833-0.178-1.133-0.535s-0.45-0.82-0.45-1.389c0-0.61 0.162-1.105 0.489-1.482 0.316-0.352 0.703-0.528 1.164-0.528 0.506 0 0.861 0.17 1.062 0.512h0.016v-2.165h0.839v4.486c0 0.367 0.010 0.706 0.030 1.016zM69.759 9.156v-0.629c0-0.109-0.008-0.197-0.023-0.264-0.047-0.202-0.149-0.371-0.303-0.508-0.156-0.137-0.344-0.206-0.561-0.206-0.313 0-0.558 0.124-0.738 0.373-0.178 0.249-0.269 0.566-0.269 0.954 0 0.373 0.086 0.675 0.258 0.908 0.182 0.248 0.426 0.372 0.733 0.372 0.275 0 0.495-0.103 0.662-0.31 0.162-0.191 0.241-0.422 0.241-0.69z"></path>
<path fill="#fff" style="fill: var(--color3, #fff)" d="M77.798 8.83c0 0.58-0.166 1.055-0.497 1.428-0.347 0.383-0.806 0.574-1.382 0.574-0.553 0-0.994-0.183-1.323-0.551-0.328-0.367-0.492-0.83-0.492-1.389 0-0.584 0.169-1.063 0.508-1.435s0.795-0.558 1.37-0.558c0.553 0 0.998 0.183 1.334 0.55 0.32 0.357 0.481 0.818 0.481 1.381zM76.93 8.857c0-0.348-0.075-0.646-0.225-0.895-0.177-0.301-0.426-0.451-0.753-0.451-0.336 0-0.592 0.15-0.769 0.451-0.15 0.249-0.225 0.552-0.225 0.91 0 0.348 0.075 0.646 0.225 0.895 0.182 0.301 0.434 0.451 0.761 0.451 0.32 0 0.572-0.153 0.753-0.459 0.154-0.254 0.233-0.554 0.233-0.902z"></path>
<path fill="#fff" style="fill: var(--color3, #fff)" d="M82.306 10.746h-0.838v-2.16c0-0.666-0.253-0.998-0.761-0.998-0.249 0-0.45 0.091-0.605 0.274s-0.233 0.399-0.233 0.646v2.237h-0.839v-2.693c0-0.331-0.010-0.69-0.030-1.079h0.736l0.039 0.59h0.023c0.098-0.183 0.244-0.334 0.434-0.455 0.228-0.141 0.482-0.212 0.761-0.212 0.351 0 0.644 0.114 0.877 0.342 0.29 0.279 0.434 0.696 0.434 1.25v2.259z"></path>
<path fill="#fff" style="fill: var(--color3, #fff)" d="M87.949 7.603h-0.923v1.832c0 0.466 0.164 0.698 0.489 0.698 0.15 0 0.275-0.013 0.374-0.039l0.022 0.636c-0.166 0.062-0.383 0.094-0.651 0.094-0.331 0-0.589-0.101-0.775-0.302s-0.28-0.541-0.28-1.017v-1.902h-0.551v-0.628h0.551v-0.691l0.822-0.248v0.938h0.923v0.629z"></path>
<path fill="#fff" style="fill: var(--color3, #fff)" d="M92.387 10.746h-0.839v-2.144c0-0.676-0.253-1.014-0.759-1.014-0.389 0-0.654 0.196-0.8 0.588-0.025 0.082-0.039 0.183-0.039 0.302v2.268h-0.838v-5.501h0.838v2.273h0.016c0.264-0.414 0.642-0.62 1.133-0.62 0.347 0 0.634 0.114 0.862 0.342 0.284 0.284 0.426 0.706 0.426 1.265v2.242z"></path>
<path fill="#fff" style="fill: var(--color3, #fff)" d="M96.966 8.682c0 0.15-0.011 0.277-0.031 0.38h-2.514c0.011 0.373 0.131 0.657 0.364 0.854 0.213 0.176 0.487 0.264 0.823 0.264 0.372 0 0.711-0.059 1.017-0.178l0.131 0.582c-0.358 0.155-0.778 0.233-1.266 0.233-0.584 0-1.044-0.172-1.377-0.516-0.334-0.344-0.5-0.806-0.5-1.385 0-0.569 0.154-1.042 0.466-1.42 0.325-0.403 0.764-0.605 1.318-0.605 0.542 0 0.954 0.202 1.233 0.605 0.225 0.32 0.336 0.716 0.336 1.186zM96.166 8.466c0.006-0.249-0.049-0.463-0.162-0.644-0.146-0.233-0.367-0.35-0.667-0.35-0.274 0-0.497 0.114-0.667 0.342-0.139 0.182-0.222 0.398-0.249 0.652h1.746z"></path>
</symbol>
<symbol id="Google_Play" viewBox="0 0 108 32">
<path fill="#100f0d" style="fill: var(--color4, #100f0d)" d="M103.999 32h-99.997c-2.2 0-4-1.8-4-4v-24c0-2.2 1.8-4 4-4h99.997c2.2 0 4 1.8 4 4v24c0 2.2-1.8 4-4 4z"></path>
<path fill="#a2a2a1" style="fill: var(--color5, #a2a2a1)" d="M103.999 0.001h-99.997c-2.2 0-4 1.8-4 4v24c0 2.2 1.8 4 4 4h99.997c2.2 0 4-1.8 4-4v-24c0-2.2-1.8-4-4-4zM103.999 0.64c1.853 0 3.36 1.508 3.36 3.36v24c0 1.853-1.507 3.36-3.36 3.36h-99.997c-1.853 0-3.36-1.508-3.36-3.36v-24c0-1.853 1.507-3.36 3.36-3.36h99.997z"></path>
<path fill="#fff" style="fill: var(--color3, #fff)" d="M85.549 24h1.493v-10.001h-1.493zM98.994 17.602l-1.711 4.336h-0.051l-1.776-4.336h-1.608l2.664 6.060-1.519 3.371h1.557l4.105-9.431zM90.528 22.864c-0.488 0-1.17-0.245-1.17-0.849 0-0.772 0.85-1.068 1.582-1.068 0.656 0 0.966 0.141 1.364 0.334-0.116 0.927-0.914 1.583-1.776 1.583zM90.709 17.383c-1.081 0-2.2 0.476-2.663 1.531l1.325 0.553c0.283-0.553 0.81-0.733 1.364-0.733 0.772 0 1.557 0.463 1.57 1.287v0.103c-0.27-0.154-0.85-0.386-1.557-0.386-1.429 0-2.882 0.785-2.882 2.251 0 1.338 1.171 2.2 2.483 2.2 1.003 0 1.558-0.45 1.904-0.978h0.052v0.772h1.442v-3.835c0-1.776-1.326-2.766-3.037-2.766zM81.483 18.819h-2.123v-3.428h2.123c1.116 0 1.75 0.924 1.75 1.714 0 0.775-0.634 1.714-1.75 1.714zM81.445 13.999h-3.577v10.001h1.492v-3.789h2.085c1.654 0 3.281-1.198 3.281-3.106s-1.626-3.106-3.281-3.106zM61.94 22.866c-1.031 0-1.894-0.864-1.894-2.049 0-1.199 0.863-2.075 1.894-2.075 1.018 0 1.817 0.876 1.817 2.075 0 1.185-0.799 2.049-1.817 2.049zM63.654 18.162h-0.052c-0.335-0.399-0.98-0.76-1.791-0.76-1.702 0-3.261 1.495-3.261 3.416 0 1.907 1.559 3.389 3.261 3.389 0.812 0 1.456-0.361 1.791-0.773h0.052v0.489c0 1.302-0.696 1.998-1.817 1.998-0.915 0-1.482-0.657-1.714-1.211l-1.301 0.541c0.373 0.902 1.366 2.011 3.016 2.011 1.753 0 3.235-1.031 3.235-3.545v-6.109h-1.418zM66.104 24h1.494v-10.001h-1.494zM69.802 20.701c-0.038-1.315 1.019-1.985 1.779-1.985 0.593 0 1.095 0.297 1.263 0.722zM74.442 19.566c-0.283-0.76-1.147-2.165-2.912-2.165-1.753 0-3.209 1.379-3.209 3.402 0 1.907 1.444 3.402 3.377 3.402 1.559 0 2.462-0.953 2.836-1.508l-1.16-0.773c-0.387 0.567-0.915 0.941-1.676 0.941s-1.302-0.348-1.649-1.031l4.549-1.882zM38.196 18.445v1.443h3.454c-0.103 0.812-0.374 1.405-0.786 1.817-0.503 0.502-1.289 1.057-2.668 1.057-2.127 0-3.789-1.714-3.789-3.841s1.662-3.841 3.789-3.841c1.147 0 1.985 0.451 2.603 1.031l1.018-1.018c-0.864-0.825-2.011-1.456-3.622-1.456-2.913 0-5.362 2.371-5.362 5.284s2.449 5.284 5.362 5.284c1.572 0 2.758-0.516 3.686-1.482 0.954-0.954 1.25-2.294 1.25-3.377 0-0.335-0.026-0.644-0.078-0.902zM47.059 22.866c-1.031 0-1.921-0.851-1.921-2.062 0-1.224 0.889-2.062 1.921-2.062s1.92 0.837 1.92 2.062c0 1.211-0.889 2.062-1.92 2.062zM47.059 17.401c-1.882 0-3.416 1.431-3.416 3.402 0 1.959 1.533 3.402 3.416 3.402s3.415-1.443 3.415-3.402c0-1.972-1.534-3.402-3.415-3.402zM54.51 22.866c-1.031 0-1.92-0.851-1.92-2.062 0-1.224 0.89-2.062 1.92-2.062s1.92 0.837 1.92 2.062c0 1.211-0.889 2.062-1.92 2.062zM54.51 17.401c-1.882 0-3.415 1.431-3.415 3.402 0 1.959 1.533 3.402 3.415 3.402s3.416-1.443 3.416-3.402c0-1.972-1.533-3.402-3.416-3.402z"></path>
<path fill="#eb3131" style="fill: var(--color6, #eb3131)" d="M16.573 15.54l-8.516 9.040c0 0.002 0.001 0.003 0.001 0.005 0.261 0.982 1.158 1.704 2.222 1.704 0.425 0 0.825-0.115 1.167-0.317l0.027-0.016 9.587-5.532-4.487-4.885z"></path>
<path fill="#f6b60b" style="fill: var(--color7, #f6b60b)" d="M25.19 14.001l-0.008-0.006-4.139-2.399-4.663 4.149 4.679 4.679 4.117-2.376c0.722-0.39 1.212-1.151 1.212-2.028 0-0.871-0.483-1.628-1.198-2.019z"></path>
<path fill="#5778c5" style="fill: var(--color8, #5778c5)" d="M8.056 7.422c-0.051 0.189-0.078 0.387-0.078 0.592v15.974c0 0.205 0.027 0.403 0.078 0.592l8.81-8.809-8.81-8.348z"></path>
<path fill="#3bad49" style="fill: var(--color9, #3bad49)" d="M16.636 16.001l4.408-4.407-9.576-5.552c-0.348-0.208-0.754-0.329-1.189-0.329-1.064 0-1.962 0.724-2.223 1.707-0 0.001-0 0.002-0 0.002l8.58 8.579z"></path>
<path fill="#fff" style="fill: var(--color3, #fff)" d="M37.916 7.825h-2.334v0.577h1.749c-0.048 0.471-0.235 0.841-0.551 1.11s-0.72 0.404-1.197 0.404c-0.524 0-0.968-0.182-1.331-0.545-0.356-0.37-0.538-0.828-0.538-1.379s0.181-1.009 0.538-1.379c0.364-0.362 0.807-0.544 1.331-0.544 0.269 0 0.525 0.046 0.76 0.148s0.424 0.242 0.571 0.424l0.444-0.444c-0.201-0.229-0.456-0.404-0.773-0.531s-0.646-0.189-1.002-0.189c-0.699 0-1.291 0.242-1.775 0.726-0.484 0.485-0.726 1.082-0.726 1.789s0.242 1.305 0.726 1.789c0.484 0.484 1.076 0.726 1.775 0.726 0.734 0 1.319-0.235 1.769-0.713 0.396-0.397 0.599-0.935 0.599-1.607 0-0.114-0.014-0.235-0.034-0.363zM38.82 5.585v4.815h2.811v-0.591h-2.192v-1.527h1.977v-0.577h-1.977v-1.526h2.192v-0.593zM45.573 6.178v-0.593h-3.309v0.593h1.345v4.222h0.619v-4.222zM48.569 5.585h-0.619v4.815h0.619zM52.653 6.178v-0.593h-3.309v0.593h1.345v4.222h0.619v-4.222zM58.896 6.212c-0.477-0.491-1.063-0.734-1.761-0.734-0.7 0-1.285 0.242-1.762 0.726-0.477 0.478-0.712 1.076-0.712 1.789s0.235 1.311 0.712 1.789c0.477 0.484 1.063 0.726 1.762 0.726 0.692 0 1.284-0.243 1.761-0.726 0.477-0.477 0.712-1.076 0.712-1.789 0-0.706-0.235-1.304-0.712-1.781zM55.816 6.614c0.356-0.362 0.794-0.544 1.319-0.544 0.524 0 0.961 0.181 1.311 0.544 0.356 0.356 0.531 0.821 0.531 1.379 0 0.559-0.175 1.022-0.531 1.379-0.35 0.362-0.788 0.545-1.311 0.545-0.525 0-0.962-0.182-1.319-0.545-0.349-0.364-0.524-0.82-0.524-1.379 0-0.558 0.175-1.015 0.524-1.379zM61.079 7.402l-0.026-0.929h0.026l2.447 3.927h0.646v-4.815h-0.619v2.817l0.026 0.929h-0.026l-2.34-3.746h-0.754v4.815h0.619z"></path>
</symbol>
<symbol id="youtube" viewBox="0 0 32 32">
<path d="M24.454 12.548s-0.173-1.191-0.691-1.709c-0.653-0.691-1.392-0.691-1.728-0.73-2.41-0.173-6.039-0.173-6.039-0.173h-0.010s-3.62 0-6.039 0.173c-0.336 0.038-1.075 0.048-1.728 0.73-0.518 0.518-0.682 1.709-0.682 1.709s-0.173 1.392-0.173 2.794v1.306c0 1.392 0.173 2.794 0.173 2.794s0.173 1.191 0.682 1.709c0.653 0.691 1.517 0.662 1.901 0.739 1.383 0.134 5.866 0.173 5.866 0.173s3.629-0.010 6.039-0.182c0.336-0.038 1.075-0.048 1.728-0.73 0.518-0.518 0.691-1.709 0.691-1.709s0.173-1.392 0.173-2.794v-1.306c0-1.392-0.173-2.794-0.173-2.794zM16.005 0c4.416 0 8.42 1.795 11.32 4.685 2.899 2.9 4.685 6.894 4.685 11.32 0 4.416-1.795 8.42-4.685 11.32-2.899 2.899-6.893 4.685-11.32 4.685-4.416 0-8.42-1.795-11.32-4.685-2.9-2.899-4.685-6.893-4.685-11.32 0-4.416 1.795-8.42 4.685-11.32 2.899-2.9 6.893-4.685 11.32-4.685zM26.499 5.501c-2.688-2.688-6.394-4.349-10.494-4.349s-7.815 1.661-10.494 4.349c-2.688 2.688-4.349 6.394-4.349 10.494s1.661 7.815 4.349 10.494c2.688 2.688 6.394 4.349 10.494 4.349s7.815-1.661 10.494-4.349c2.688-2.688 4.349-6.394 4.349-10.494s-1.661-7.815-4.349-10.494zM14.209 18.242v-4.848l4.666 2.429-4.666 2.419z"></path>
</symbol>
<symbol id="facebook" viewBox="0 0 32 32">
<path d="M13.6 11.373v3.043h-2.435v3.648h2.435v8.518h3.648v-8.515h3.651v-3.648h-3.648v-2.435c0-0.73 0.486-1.216 1.216-1.216h2.435v-3.651h-3.046c-2.31 0-4.256 1.946-4.256 4.256v0z"></path>
<path d="M16 0.32c-8.624 0-15.68 7.056-15.68 15.68 0 8.621 7.056 15.68 15.68 15.68s15.68-7.056 15.68-15.68c0-8.624-7.056-15.68-15.68-15.68zM16 30.374c-7.907 0-14.374-6.47-14.374-14.374s6.467-14.374 14.374-14.374 14.374 6.47 14.374 14.374c0 7.904-6.467 14.374-14.374 14.374z"></path>
</symbol>
<symbol id="telegram" viewBox="0 0 32 32">
<path d="M16 32c-8.8 0-16-7.2-16-16s7.2-16 16-16 16 7.2 16 16-7.2 16-16 16zM16 1.6c-7.92 0-14.4 6.48-14.4 14.4s6.48 14.4 14.4 14.4 14.4-6.48 14.4-14.4-6.48-14.4-14.4-14.4z"></path>
<path d="M13.36 19.28l7.44-6.72c0.32-0.32-0.080-0.4-0.48-0.16l-9.12 5.76-3.92-1.2c-0.88-0.24-0.88-0.88 0.16-1.28l15.44-5.92c0.72-0.32 1.36 0.16 1.12 1.28l-2.64 12.4c-0.16 0.88-0.72 1.12-1.44 0.72l-4-2.96-1.92 1.84c-0.24 0.24-0.56 0.24-0.56 0l-0.080-3.76z"></path>
</symbol>
<symbol id="icon-person-black-18dp-1" viewBox="0 0 32 32">
<path d="M16 16c2.947 0 5.333-2.387 5.333-5.333s-2.387-5.333-5.333-5.333c-2.947 0-5.333 2.387-5.333 5.333s2.387 5.333 5.333 5.333zM16 18.667c-3.56 0-10.667 1.787-10.667 5.333v1.333c0 0.733 0.6 1.333 1.333 1.333h18.667c0.733 0 1.333-0.6 1.333-1.333v-1.333c0-3.547-7.107-5.333-10.667-5.333z"></path>
</symbol>
<symbol id="icon-email-black-18dp-1" viewBox="0 0 32 32">
<path d="M26.667 5.333h-21.333c-1.467 0-2.653 1.2-2.653 2.667l-0.013 16c0 1.467 1.2 2.667 2.667 2.667h21.333c1.467 0 2.667-1.2 2.667-2.667v-16c0-1.467-1.2-2.667-2.667-2.667zM26.133 11l-9.427 5.893c-0.427 0.267-0.987 0.267-1.413 0l-9.427-5.893c-0.333-0.213-0.533-0.573-0.533-0.96 0-0.893 0.973-1.427 1.733-0.96l8.933 5.587 8.933-5.587c0.76-0.467 1.733 0.067 1.733 0.96 0 0.387-0.2 0.747-0.533 0.96z"></path>
</symbol>
<symbol id="icon-key" viewBox="0 0 32 32">
<path d="M22 0c-5.523 0-10 4.477-10 10 0 0.626 0.058 1.238 0.168 1.832l-12.168 12.168v6c0 1.105 0.895 2 2 2h2v-2h4v-4h4v-4h4l2.595-2.595c1.063 0.385 2.209 0.595 3.405 0.595 5.523 0 10-4.477 10-10s-4.477-10-10-10zM24.996 10.004c-1.657 0-3-1.343-3-3s1.343-3 3-3 3 1.343 3 3-1.343 3-3 3z"></path>
</symbol>
<symbol id="icon-eye" viewBox="0 0 32 32">
<path d="M16 6c-6.979 0-13.028 4.064-16 10 2.972 5.936 9.021 10 16 10s13.027-4.064 16-10c-2.972-5.936-9.021-10-16-10zM23.889 11.303c1.88 1.199 3.473 2.805 4.67 4.697-1.197 1.891-2.79 3.498-4.67 4.697-2.362 1.507-5.090 2.303-7.889 2.303s-5.527-0.796-7.889-2.303c-1.88-1.199-3.473-2.805-4.67-4.697 1.197-1.891 2.79-3.498 4.67-4.697 0.122-0.078 0.246-0.154 0.371-0.228-0.311 0.854-0.482 1.776-0.482 2.737 0 4.418 3.582 8 8 8s8-3.582 8-8c0-0.962-0.17-1.883-0.482-2.737 0.124 0.074 0.248 0.15 0.371 0.228v0zM16 13c0 1.657-1.343 3-3 3s-3-1.343-3-3 1.343-3 3-3 3 1.343 3 3z"></path>
</symbol>
<symbol id="icon-eye-blocked" viewBox="0 0 32 32">
 <path d="M29.561 0.439c-0.586-0.586-1.535-0.586-2.121 0l-6.318 6.318c-1.623-0.492-3.342-0.757-5.122-0.757-6.979 0-13.028 4.064-16 10 1.285 2.566 3.145 4.782 5.407 6.472l-4.968 4.968c-0.586 0.586-0.586 1.535 0 2.121 0.293 0.293 0.677 0.439 1.061 0.439s0.768-0.146 1.061-0.439l27-27c0.586-0.586 0.586-1.536 0-2.121zM13 10c1.32 0 2.44 0.853 2.841 2.037l-3.804 3.804c-1.184-0.401-2.037-1.521-2.037-2.841 0-1.657 1.343-3 3-3zM3.441 16c1.197-1.891 2.79-3.498 4.67-4.697 0.122-0.078 0.246-0.154 0.371-0.228-0.311 0.854-0.482 1.776-0.482 2.737 0 1.715 0.54 3.304 1.459 4.607l-1.904 1.904c-1.639-1.151-3.038-2.621-4.114-4.323z"></path>
<path d="M24 13.813c0-0.849-0.133-1.667-0.378-2.434l-10.056 10.056c0.768 0.245 1.586 0.378 2.435 0.378 4.418 0 8-3.582 8-8z"></path>
<path d="M25.938 9.062l-2.168 2.168c0.040 0.025 0.079 0.049 0.118 0.074 1.88 1.199 3.473 2.805 4.67 4.697-1.197 1.891-2.79 3.498-4.67 4.697-2.362 1.507-5.090 2.303-7.889 2.303-1.208 0-2.403-0.149-3.561-0.439l-2.403 2.403c1.866 0.671 3.873 1.036 5.964 1.036 6.978 0 13.027-4.064 16-10-1.407-2.81-3.504-5.2-6.062-6.938z"></path>
</symbol>
<symbol id="signout" viewBox="0 0 32 32">
<path d="M24 20v-4h-10v-4h10v-4l6 6zM22 18v8h-10v6l-12-6v-26h22v10h-2v-8h-16l8 4v18h8v-6z"></path>
</symbol>
<symbol id="book" viewBox="0 0 32 32">
<path d="M28 4v26h-21c-1.657 0-3-1.343-3-3s1.343-3 3-3h19v-24h-20c-2.2 0-4 1.8-4 4v24c0 2.2 1.8 4 4 4h24v-28h-2z"></path>
<path d="M7.002 26v0c-0.001 0-0.001 0-0.002 0-0.552 0-1 0.448-1 1s0.448 1 1 1c0.001 0 0.001-0 0.002-0v0h18.997v-2h-18.997z"></path>
</symbol>
</defs></svg>